<?xml version="1.0" encoding="UTF-8"?><svg id="Layer_2" xmlns="http://www.w3.org/2000/svg" viewBox="0 0 817.1 141.12"><defs><style>.cls-1{fill:#fff;}</style></defs><g id="Layer_3"><path class="cls-1" d="M28.24,3.05l39.86,107.55L107.97,3.05h27.41l-55.44,138.07h-24.5L0,3.05h28.24Z"/><path class="cls-1" d="M140.82,67.61v72.46h25.75V3.48s-25.75,64.13-25.75,64.13Z"/><path class="cls-1" d="M545.22,75.94V3.48h-25.75v136.59s25.75-64.13,25.75-64.13Z"/><path class="cls-1" d="M214.46,133.49c-10.17-3.53-18.48-8.1-24.5-13.7l13.91-16.82c5.6,4.57,11.83,8.3,19.1,11.63,7.06,3.32,14.95,4.98,23.46,4.98,6.85,0,12.67-1.46,17.02-4.57,4.57-2.91,6.64-7.26,6.64-13.08v-.41c0-2.91-.42-5.4-1.66-7.68-1.04-2.28-2.7-4.15-5.19-5.81s-5.81-3.11-9.55-4.57c-3.94-1.25-8.93-2.91-14.95-4.36-7.27-1.66-13.7-3.74-19.31-5.81-5.61-2.08-10.38-4.57-14.12-7.48-3.74-2.91-6.64-6.43-8.51-10.59-2.08-4.15-2.91-9.55-2.91-15.78v-.41c0-5.81,1.04-11,3.11-15.57,2.29-4.78,5.4-8.93,9.34-12.25,4.15-3.53,9.14-6.23,14.95-8.3,5.81-1.87,12.46-2.91,19.52-2.91,10.17,0,19.72,1.45,28.24,4.57s15.16,6.43,20.14,10.38l-12.25,17.86c-5.19-3.74-11-6.65-17.44-9.34-6.23-2.7-12.66-3.94-19.1-3.94s-11.83,1.45-15.78,4.57c-3.74,2.91-5.81,7.06-5.81,12.04v.42c0,3.11.62,6.02,1.87,8.3,1.25,2.49,3.32,4.36,6.02,6.02s6.02,2.91,10.17,4.15c4.15,1.45,9.34,2.91,15.57,4.36,7.06,2.08,13.29,4.15,18.89,6.43,5.4,2.28,9.97,4.98,13.5,7.89,3.53,3.11,6.02,6.65,7.89,10.38,1.66,3.94,2.49,8.72,2.49,14.33v.41c0,6.23-1.25,11.83-3.53,16.82-2.28,4.98-5.61,9.13-9.76,12.46-4.36,3.53-9.55,6.23-15.57,8.1-6.23,1.87-13.08,2.91-20.55,2.91-10.8,0-21.18-1.87-31.35-5.61v-.02Z"/><path class="cls-1" d="M344.36,2.07v137.03h-25.74V2.07h25.74Z"/><path class="cls-1" d="M390.5,119.16c-12.87-13.29-19.31-29.48-19.31-48.38s6.44-34.88,19.31-48.38,29.9-20.35,50.87-20.35c12.87,0,23.46,1.87,31.77,5.81,8.3,3.74,14.54,7.68,18.69,11.83l-14.95,17.23c-9.13-9.76-20.97-14.74-35.71-14.74-12.67,0-23.05,4.78-31.35,14.12-8.51,9.34-12.66,20.56-12.66,34.05s4.15,24.92,12.46,34.26c8.1,9.55,18.69,14.32,31.56,14.32,16.82,0,29.27-5.19,37.16-15.36l14.33,14.74c-4.57,5.19-11.42,9.97-19.93,14.33-8.51,4.36-19.52,6.44-32.6,6.44-20.14,0-36.54-6.65-49.62-19.93h-.02Z"/><path class="cls-1" d="M666.61,139.92l-45.68-112.11-37.79,92.39h34.67v19.72h-68.1L608.48,2.27h25.74l58.55,137.65h-26.16Z"/><path class="cls-1" d="M791.58,2.07v95.3L719.12,2.07h-25.14v78.11l25.14,59.11h.2V41.08l74.74,98.21h23.04V2.07h-25.52,0Z"/></g></svg>